<?xml version="1.0" encoding="UTF-8" standalone="no"?>
<!-- Created with Inkscape (http://www.inkscape.org/) -->

<svg
   width="148.33836mm"
   height="114.59418mm"
   viewBox="0 0 148.33836 114.59421"
   version="1.1"
   id="svg1"
   xmlns="http://www.w3.org/2000/svg"
   xmlns:svg="http://www.w3.org/2000/svg">
  <defs
     id="defs1" />
  <g
     id="layer1"
     transform="translate(-14.495399,-98.912834)">
    <g
       id="g12">
      <rect
         style="fill:#552200;stroke-width:0.211471"
         id="rect1"
         width="148.33836"
         height="94.882729"
         x="14.495399"
         y="98.912834" />
      <rect
         style="fill:#ff0000;stroke-width:0.0974236"
         id="rect1-9"
         width="148.33836"
         height="20.137939"
         x="14.495399"
         y="193.36908" />
    </g>
    <g
       id="text1"
       style="font-weight:900;font-size:16.9333px;line-height:1;font-family:'Neue Haas Grotesk Display Pro';-inkscape-font-specification:'Neue Haas Grotesk Display Pro Heavy';text-align:center;text-anchor:middle;fill:#ffffff;stroke-width:0.1"
       aria-label="FIRE DANGER&#10;TODAY">
      <path
         style="stroke:#000000"
         d="m 33.208044,114.75299 h 3.53906 v -4.40266 h 4.792124 v -2.74319 h -4.792124 v -1.9812 h 5.791189 v -2.98026 h -9.330249 z m 10.329324,0 h 3.53906 v -12.10731 h -3.53906 z m 4.995324,0 h 3.53906 v -4.21639 h 1.64253 c 1.032931,0 1.439331,0.47413 1.659464,1.40546 0.253999,1.08373 0.118533,2.57386 0.457199,2.81093 h 3.488259 v -0.18627 c -0.440265,-0.11853 -0.169333,-1.86266 -0.491065,-3.31892 -0.2032,-0.94827 -0.711199,-1.6256 -1.69333,-1.99813 v -0.0508 c 1.269997,-0.57573 1.981196,-1.55787 1.981196,-2.9464 0,-2.47226 -2.099729,-3.60679 -4.571991,-3.60679 h -6.011322 z m 3.53906,-9.33025 h 1.94733 c 1.015998,0 1.523997,0.508 1.523997,1.30387 0,0.84666 -0.558799,1.28693 -1.574797,1.28693 h -1.89653 z m 8.161851,9.33025 h 9.601181 v -3.03106 h -6.062121 v -1.89653 h 4.92759 v -2.65853 h -4.92759 v -1.64253 h 5.892788 v -2.87866 h -9.431848 z m 13.309563,0 h 5.435589 c 3.759193,0 6.062121,-2.16746 6.062121,-6.02825 0,-3.84386 -2.421462,-6.07906 -5.909721,-6.07906 h -5.587989 z m 3.539059,-2.92946 v -6.24839 h 1.608664 c 1.69333,0 2.760128,1.15147 2.760128,3.1496 0,2.04893 -1.134531,3.09879 -2.760128,3.09879 z m 7.298254,2.92946 h 3.522127 l 0.592665,-1.778 h 4.097859 l 0.592665,1.778 h 3.759193 L 92.457663,102.64568 H 88.85087 Z m 5.706522,-6.58705 c 0.2032,-0.59267 0.457199,-1.55787 0.457199,-1.55787 h 0.03387 c 0,0 0.270933,0.9652 0.457199,1.55787 l 0.761999,2.37066 h -2.506129 z m 7.518375,6.58705 H 101.0259 V 107.895 h 0.0339 l 3.84386,6.85799 h 3.65759 v -12.10731 h -3.42053 v 6.80719 h -0.0339 l -3.96239,-6.80719 h -3.539064 z m 21.386754,0 h 2.35373 v -6.57012 h -4.99533 v 2.50613 h 1.60867 c -0.22014,0.8128 -0.84667,1.50706 -2.1336,1.50706 -1.71026,0 -2.6924,-1.47319 -2.6924,-3.45439 0,-1.9812 0.8636,-3.40359 2.55693,-3.40359 1.08373,0 1.81187,0.64346 1.99813,1.42239 h 3.42053 c -0.38947,-2.69239 -2.3876,-4.33492 -5.55412,-4.33492 -3.74226,0 -6.01132,2.74319 -6.01132,6.31612 0,1.8796 0.55879,3.50519 1.67639,4.69052 0.98213,1.04987 2.37066,1.60867 3.99626,1.60867 1.4732,0 2.70933,-0.47414 3.47133,-1.5748 h 0.0339 z m 3.55599,0 h 9.60118 v -3.03106 h -6.06212 v -1.89653 h 4.92759 v -2.65853 h -4.92759 v -1.64253 h 5.89279 v -2.87866 h -9.43185 z m 10.7865,0 h 3.53906 v -4.21639 h 1.64253 c 1.03293,0 1.43933,0.47413 1.65946,1.40546 0.254,1.08373 0.11853,2.57386 0.4572,2.81093 h 3.48826 v -0.18627 c -0.44027,-0.11853 -0.16933,-1.86266 -0.49107,-3.31892 -0.2032,-0.94827 -0.7112,-1.6256 -1.69333,-1.99813 v -0.0508 c 1.27,-0.57573 1.9812,-1.55787 1.9812,-2.9464 0,-2.47226 -2.09973,-3.60679 -4.57199,-3.60679 h -6.01132 z m 3.53906,-9.33025 h 1.94733 c 1.01599,0 1.52399,0.508 1.52399,1.30387 0,0.84666 -0.5588,1.28693 -1.57479,1.28693 h -1.89653 z"
         id="path2" />
      <path
         style="stroke:#000000"
         d="m 59.954177,122.59311 h 3.420527 v 9.09318 h 3.539059 v -9.09318 h 3.471327 v -3.01413 H 59.954177 Z m 16.645439,9.38105 c 3.759192,0 6.163721,-2.67546 6.163721,-6.29919 0,-3.62373 -2.404529,-6.31612 -6.163721,-6.31612 -3.759193,0 -6.129855,2.69239 -6.129855,6.31612 0,3.62373 2.370662,6.29919 6.129855,6.29919 z m 0.01693,-2.82786 c -1.69333,0 -2.556928,-1.49013 -2.556928,-3.47133 0,-1.9812 0.863598,-3.48826 2.556928,-3.48826 1.69333,0 2.556928,1.50706 2.556928,3.48826 0,1.9812 -0.863598,3.47133 -2.556928,3.47133 z m 7.128928,2.53999 h 5.435589 c 3.759193,0 6.062121,-2.16746 6.062121,-6.02825 0,-3.84386 -2.421462,-6.07906 -5.909721,-6.07906 h -5.587989 z m 3.539059,-2.92946 v -6.24839 H 88.8932 c 1.69333,0 2.760128,1.15147 2.760128,3.1496 0,2.04893 -1.134531,3.09879 -2.760128,3.09879 z m 7.298256,2.92946 h 3.522127 l 0.592665,-1.778 h 4.097859 l 0.59267,1.778 h 3.75919 l -4.48732,-12.10731 h -3.6068 z m 5.706521,-6.58705 c 0.2032,-0.59267 0.4572,-1.55787 0.4572,-1.55787 h 0.0339 c 0,0 0.27093,0.9652 0.4572,1.55787 l 0.762,2.37066 h -2.506134 z m 9.12705,6.58705 h 3.53906 v -4.25026 l 4.16559,-7.85705 h -3.75919 l -1.28693,2.6924 c -0.44027,0.91439 -0.82973,1.94733 -0.82973,1.94733 h -0.0339 c 0,0 -0.37253,-1.03294 -0.8128,-1.94733 l -1.28693,-2.6924 h -3.84386 l 4.14866,7.85705 z"
         id="path3" />
    </g>
    <g
       id="g2">
      <g
         id="g1">
        <path
           style="fill:#008000;stroke-width:0.26501"
           id="path1-1"
           d="m -32.732113,-191.48505 a 55.831898,55.831898 0 0 1 -10.662944,32.81717 l -45.168954,-32.81717 z"
           transform="rotate(179.96617)" />
        <path
           style="fill:#0000ff;stroke-width:0.26501"
           id="path1-1-6"
           transform="rotate(179.96617)"
           d="m -43.336418,-158.70366 a 55.832001,55.831898 0 0 1 -27.916002,20.28212 l -17.253035,-53.09929 z" />
        <path
           style="opacity:0.99;fill:#ffcc00;stroke-width:0.26501"
           id="path1-1-6-2"
           transform="rotate(179.96617)"
           d="m -71.264734,-138.45567 a 55.832001,55.831898 0 0 1 -34.506076,0 l 17.253041,-53.09929 z" />
        <path
           style="fill:#ff6e00;fill-opacity:1;stroke-width:0.26501"
           id="path1-1-6-2-5"
           transform="rotate(179.96617)"
           d="m -105.74478,-138.4057 a 55.832001,55.831898 0 0 1 -27.916,-20.28212 l 45.169035,-32.81717 z" />
        <path
           style="fill:#ff0000;fill-opacity:1;stroke-width:0.26501"
           id="path1-1-6-2-5-9"
           transform="rotate(179.96617)"
           d="m -133.70802,-158.63095 a 55.832001,55.831898 0 0 1 -10.66297,-32.81717 h 55.832004 z" />
      </g>
      <path
         d="m 82.73331,141.4648 1.027459,-0.0991 -0.132788,-1.3765 1.081535,-0.10433 0.132788,1.37649 1.027458,-0.0991 -0.339083,-3.51499 -1.027458,0.0991 0.124251,1.28801 -1.081535,0.10433 -0.124251,-1.28801 -1.027458,0.0991 z m 3.562266,-0.31001 1.030883,-0.0527 -0.180256,-3.5267 -1.030883,0.0527 z m 4.072813,-0.10358 0.686497,-0.004 -0.01007,-1.91626 -1.456953,0.008 0.0038,0.73095 0.469188,-0.002 c -0.06296,0.2374 -0.244631,0.44086 -0.619981,0.44283 -0.498821,0.003 -0.787532,-0.42555 -0.790569,-1.00339 -0.003,-0.57784 0.246662,-0.99403 0.740544,-0.99663 0.316084,-0.002 0.52944,0.1849 0.584961,0.4118 l 0.997642,-0.005 c -0.11772,-0.78468 -0.70302,-1.26068 -1.626579,-1.25582 -1.09148,0.006 -1.749076,0.8093 -1.743598,1.85139 0.0029,0.54821 0.168355,1.02148 0.496134,1.36549 0.288061,0.3047 0.693902,0.46555 1.168028,0.46306 0.429678,-0.002 0.789485,-0.14244 1.010045,-0.46464 l 0.0099,-5e-5 z m 1.038218,0.01 1.030398,0.0614 0.08229,-1.38044 1.084631,0.0647 -0.08229,1.38044 1.030398,0.0614 0.210139,-3.52505 -1.030399,-0.0614 -0.077,1.29169 -1.084631,-0.0647 0.077,-1.2917 -1.030399,-0.0614 z"
         id="text9"
         style="font-weight:900;font-size:4.93889px;line-height:1;font-family:'Neue Haas Grotesk Display Pro';-inkscape-font-specification:'Neue Haas Grotesk Display Pro Heavy';fill:#ffffff;stroke:#000000;stroke-width:0.1"
         aria-label="HIGH" />
      <path
         d="m 107.39912,144.39385 1.05305,0.47615 2.48997,-2.74964 -0.95405,-0.43138 -1.11573,1.31673 c -0.20064,0.23991 -0.44034,0.55431 -0.44034,0.55431 l -0.009,-0.004 c 0,0 0.0822,-0.38561 0.12534,-0.69675 l 0.24268,-1.7115 -0.96754,-0.43749 z m 2.25323,1.03612 2.4799,1.30078 0.41063,-0.78291 -1.56578,-0.82134 0.25692,-0.48986 1.27273,0.66763 0.36016,-0.68669 -1.27274,-0.66763 0.22249,-0.42429 1.52207,0.79835 0.39002,-0.74353 -2.43617,-1.27785 z m 2.78201,1.47077 0.88495,0.53138 0.63309,-1.05431 0.41055,0.2469 c 0.25852,0.15469 0.28873,0.33467 0.20394,0.6006 -0.0993,0.30909 -0.35678,0.66141 -0.30772,0.77152 l 0.87226,0.52372 0.028,-0.0466 c -0.0923,-0.0958 0.23736,-0.49117 0.37553,-0.90364 0.0916,-0.2676 0.0662,-0.51326 -0.12342,-0.75389 l 0.007,-0.0127 c 0.40402,0.0468 0.72932,-0.0921 0.93779,-0.43929 0.37123,-0.61817 0.0165,-1.21716 -0.60169,-1.58836 l -1.50313,-0.90259 z m 2.28583,-1.80167 0.48694,0.29239 c 0.25422,0.15223 0.3048,0.35584 0.18531,0.55485 -0.12671,0.21194 -0.33296,0.2379 -0.587,0.0853 l -0.47425,-0.28474 z m 1.34414,4.06308 0.85136,0.58369 0.70104,-1.02241 2.29796,-1.20298 -0.90427,-0.62006 -0.75365,0.43541 c -0.25673,0.14734 -0.52078,0.33158 -0.52078,0.33158 l -0.008,-0.005 c 0,0 0.0808,-0.30989 0.12566,-0.60249 l 0.13451,-0.85993 -0.92466,-0.63399 -0.29794,2.5743 z m 2.60442,1.8361 0.80452,0.64671 0.8664,-1.07784 0.84687,0.68075 -0.8664,1.07783 0.80452,0.64671 2.21243,-2.75232 -0.80453,-0.64671 -0.81071,1.00855 -0.84687,-0.68075 0.81071,-1.00854 -0.80453,-0.64672 z m 2.76584,2.26626 0.77456,0.68233 2.33426,-2.64978 -0.77454,-0.68233 z m 2.98706,2.77057 0.4938,0.4769 1.33123,-1.37839 -1.04801,-1.01215 -0.50779,0.52578 0.3375,0.32595 c -0.21088,0.12592 -0.48299,0.14463 -0.75299,-0.11616 -0.35882,-0.34653 -0.26635,-0.8546 0.13507,-1.27026 0.40143,-0.41565 0.87081,-0.53909 1.22607,-0.19599 0.22735,0.21961 0.24974,0.50212 0.131,0.70328 l 0.71762,0.69307 c 0.46386,-0.64375 0.37742,-1.39323 -0.28691,-2.03484 -0.78512,-0.75825 -1.81699,-0.64249 -2.54093,0.10711 -0.38084,0.39434 -0.59296,0.84862 -0.59869,1.32374 -0.007,0.41926 0.17142,0.81783 0.51247,1.14721 0.30907,0.2985 0.66448,0.44948 1.04736,0.37296 l 0.008,0.007 z m 0.73626,0.73205 0.6945,0.76366 1.02308,-0.93043 0.73106,0.80385 -1.02309,0.93042 0.6945,0.76366 2.61251,-2.37591 -0.69451,-0.76366 -0.9573,0.87061 -0.73105,-0.80384 0.95731,-0.87062 -0.6945,-0.76365 z"
         id="text9-3"
         style="font-weight:900;font-size:4.93889px;line-height:1;font-family:'Neue Haas Grotesk Display Pro';-inkscape-font-specification:'Neue Haas Grotesk Display Pro Heavy';fill:#ffffff;stroke:#000000;stroke-width:0.1"
         aria-label="VERY HIGH" />
      <path
         d="m 132.38437,165.58468 1.25996,2.50088 0.78952,-0.39778 -0.79553,-1.57904 0.49401,-0.24885 0.64665,1.28352 0.69249,-0.34885 -0.64664,-1.28353 0.42786,-0.21551 0.7733,1.53494 0.74984,-0.37773 -1.23774,-2.45679 z m 1.3225,2.60924 0.4588,1.0661 1.26547,0.15438 0.004,0.009 -0.77152,0.99338 0.48609,1.12964 1.25018,-1.81771 1.9486,0.31741 -0.44316,-1.02982 -1.08711,-0.13973 -0.004,-0.009 0.64978,-0.87647 -0.47054,-1.09331 -1.10643,1.66444 z m 3.9347,2.47238 0.33807,0.93863 -2.49528,0.89872 0.34981,0.97114 2.49529,-0.89871 0.34311,0.95256 0.8271,-0.29792 -1.031,-2.86234 z m -1.37567,4.03458 0.29177,0.99014 1.17963,-0.34761 0.13535,0.45955 c 0.0852,0.28899 -0.014,0.44179 -0.25641,0.58014 -0.28225,0.16046 -0.71032,0.24537 -0.74874,0.35964 l 0.28759,0.97591 0.0519,-0.0157 c -0.003,-0.13293 0.50708,-0.20116 0.88806,-0.41099 0.24857,-0.13499 0.39618,-0.33299 0.41944,-0.63847 l 0.0142,-0.004 c 0.26578,0.30786 0.59918,0.42587 0.98765,0.3114 0.69168,-0.20381 0.83601,-0.88478 0.6322,-1.57645 l -0.49555,-1.68182 z m 2.90212,0.221 0.1605,0.54483 c 0.0838,0.28424 -0.0165,0.46826 -0.23917,0.53387 -0.23688,0.0698 -0.40611,-0.0503 -0.48986,-0.33451 l -0.15632,-0.53061 z m -1.95312,3.05791 0.63231,2.72802 0.86124,-0.19962 -0.39924,-1.72245 0.53888,-0.1249 0.32451,1.4001 0.75538,-0.17508 -0.32451,-1.4001 0.46668,-0.1082 0.38809,1.67434 0.81793,-0.18958 -0.62116,-2.67992 z m 0.71427,3.06562 0.14637,0.89689 2.18374,-0.35637 0.002,0.0101 -2.08907,0.93643 0.12171,0.74578 2.2784,0.22368 0.002,0.0101 -2.18374,0.35637 0.15034,0.92127 3.4852,-0.56878 -0.21796,-1.33558 -2.03726,-0.21799 -0.002,-0.0101 1.86226,-0.85437 -0.21637,-1.32584 z m 0.64811,4.16836 0.2678,2.7875 0.88001,-0.0845 -0.16908,-1.76002 0.55062,-0.0529 0.13744,1.43063 0.77185,-0.0742 -0.13744,-1.43063 0.47688,-0.0458 0.16436,1.71086 0.83576,-0.0803 -0.26307,-2.73835 z"
         id="text9-3-0"
         style="font-weight:900;font-size:4.93889px;line-height:1;font-family:'Neue Haas Grotesk Display Pro';-inkscape-font-specification:'Neue Haas Grotesk Display Pro Heavy';fill:#ffffff;stroke:#000000;stroke-width:0.1"
         aria-label="EXTREME" />
      <path
         d="m 49.597918,160.43154 0.606493,-0.67676 -1.647849,-1.47659 0.0065,-0.008 2.040064,1.03888 0.504303,-0.56274 -1.255626,-1.9143 0.0065,-0.008 1.647848,1.47659 0.622924,-0.6952 -2.62993,-2.3566 -0.90309,1.00783 1.108735,1.72298 -0.0065,0.008 -1.833842,-0.91377 -0.896498,1.00048 z m 4.077101,-4.2128 c 0.787984,-0.7624 0.749401,-1.81088 0.01449,-2.57046 -0.73492,-0.75959 -1.784992,-0.8363 -2.572977,-0.0739 -0.787985,0.7624 -0.738867,1.80756 -0.004,2.56715 0.73492,0.75959 1.774457,0.83962 2.562443,0.0772 z m -0.569967,-0.5962 c -0.355261,0.34309 -0.838184,0.20621 -1.239983,-0.20907 -0.401802,-0.41529 -0.526425,-0.90634 -0.171482,-1.24977 0.355262,-0.34307 0.841619,-0.20265 1.24342,0.21263 0.401808,0.41529 0.522989,0.90279 0.168039,1.24621 z m 2.021073,-0.90288 1.209711,-1.02472 c 0.836585,-0.70872 0.940514,-1.62521 0.212661,-2.48443 -0.724659,-0.85546 -1.684944,-0.8964 -2.461259,-0.23878 l -1.243637,1.05344 z m 0.235347,-1.31915 -1.177974,-1.39057 0.358001,-0.30329 c 0.376872,-0.3192 0.831345,-0.26409 1.208043,0.1806 0.386276,0.45599 0.331706,0.90352 -0.03007,1.20999 z m 2.555742,-1.01838 2.242808,-1.67684 -0.529374,-0.70805 -1.416089,1.05875 -0.331231,-0.44303 1.151069,-0.86059 -0.464312,-0.62103 -1.151069,0.86061 -0.286862,-0.3837 1.376534,-1.02916 -0.502752,-0.67246 -2.203254,1.64726 z m 2.525178,-1.87807 0.86185,-0.56807 -0.676801,-1.0268 0.399984,-0.26366 c 0.251565,-0.16578 0.426628,-0.11552 0.629723,0.0759 0.235808,0.22315 0.442017,0.60778 0.562512,0.61118 l 0.849473,-0.55993 -0.02995,-0.0454 c -0.126223,0.0418 -0.340214,-0.42643 -0.652364,-0.72939 -0.201712,-0.19829 -0.434126,-0.28171 -0.7331,-0.21478 l -0.0085,-0.012 c 0.216856,-0.34407 0.232397,-0.6974 0.0095,-1.03554 -0.396837,-0.60206 -1.090293,-0.5413 -1.692344,-0.14446 l -1.463907,0.96492 z m -0.635818,-2.84022 0.474228,-0.31258 c 0.247388,-0.16311 0.452673,-0.12088 0.580418,0.0729 0.135904,0.20618 0.07049,0.40309 -0.176922,0.56618 l -0.46183,0.30445 z m 3.335273,1.06455 0.889843,-0.51333 -0.109393,-0.53558 1.035291,-0.59723 0.408874,0.36282 0.949734,-0.54788 -2.898261,-2.40484 -0.911229,0.52566 z m 0.481694,-2.49587 c -0.03501,-0.17936 -0.11154,-0.46021 -0.11154,-0.46021 l 0.0088,-0.005 c 0,0 0.209136,0.20436 0.342553,0.32695 l 0.538027,0.48789 -0.633153,0.36524 z m 1.165538,-1.50647 0.891208,-0.44839 1.192012,2.3692 0.922103,-0.46392 -1.19202,-2.36922 0.90445,-0.45505 -0.395111,-0.78532 -2.717767,1.36738 z m 4.171976,0.88414 2.568978,-1.1146 -0.351875,-0.81102 -1.622039,0.70375 -0.220167,-0.50745 1.318476,-0.57204 -0.308627,-0.71134 -1.318469,0.57204 -0.190687,-0.43948 1.576727,-0.6841 -0.334184,-0.77024 -2.523666,1.09494 z"
         id="text9-3-0-4"
         style="font-weight:900;font-size:4.93889px;line-height:1;font-family:'Neue Haas Grotesk Display Pro';-inkscape-font-specification:'Neue Haas Grotesk Display Pro Heavy';fill:#ffffff;stroke:#000000;stroke-width:0.1"
         aria-label="MODERATE" />
      <path
         d="m 39.650301,181.5416 0.68532,-2.44947 -0.851361,-0.2382 -0.407208,1.45541 -2.549345,-0.71326 -0.278121,0.99404 z m 1.352142,-4.17434 c 0.355028,-1.03737 -0.156198,-1.95358 -1.156203,-2.2958 -0.999986,-0.34222 -1.970041,0.0671 -2.325049,1.10444 -0.355029,1.03736 0.164119,1.94582 1.164071,2.28804 0.999986,0.34222 1.962172,-0.0593 2.317181,-1.09668 z m -0.778757,-0.27173 c -0.159889,0.46728 -0.652681,0.56487 -1.199403,0.37776 -0.54672,-0.1871 -0.881049,-0.56773 -0.721132,-1.03501 0.159887,-0.4673 0.657349,-0.56328 1.204071,-0.37618 0.546721,0.18711 0.876379,0.56614 0.716464,1.03343 z m 1.592263,-2.22754 0.416208,-0.97153 -1.254981,-0.87077 c -0.256185,-0.1796 -0.582415,-0.38383 -0.582415,-0.38383 l 0.0038,-0.009 c 0,0 0.372904,0.0953 0.679664,0.15685 l 1.500043,0.29876 0.410391,-0.9579 -2.880338,-2.24409 -0.416209,0.97152 1.002049,0.70869 c 0.330113,0.23277 0.84248,0.55436 0.84248,0.55436 l -0.0038,0.009 c 0,0 -0.525314,-0.12834 -0.937132,-0.20805 l -1.255541,-0.24237 -0.367578,0.85803 1.050687,0.74564 c 0.337256,0.2412 0.786067,0.53556 0.786067,0.53556 l -0.0038,0.009 c 0,0 -0.584326,-0.15361 -0.971501,-0.22814 l -1.213391,-0.24043 -0.406482,0.94883 z"
         id="text9-3-0-4-0"
         style="font-weight:900;font-size:4.93889px;line-height:1;font-family:'Neue Haas Grotesk Display Pro';-inkscape-font-specification:'Neue Haas Grotesk Display Pro Heavy';fill:#ffffff;stroke:#000000;stroke-width:0.1"
         aria-label="LOW" />
    </g>
    <g
       id="g9"
       transform="rotate(-0.0294176,9364.4179,186.98256)">
      <g
         id="g7">
        <rect
           style="fill:#ffffff;fill-opacity:1;stroke:#000000;stroke-width:0.1;stroke-dasharray:none;stroke-opacity:1"
           id="rect5"
           width="3.6020584"
           height="36.380791"
           x="86.863548"
           y="150.06955"
           ry="0"
           rx="0" />
        <path
           style="fill:#ffffff;fill-opacity:1;stroke:#000000;stroke-width:0.892941;stroke-dasharray:none;stroke-opacity:1"
           id="path7"
           d="m 2.7887104,27.601091 c 1.1042145,0 18.9556796,30.919647 18.4035726,31.875925 -0.552107,0.956278 -36.25504,0.956277 -36.807147,-10e-7 -0.552107,-0.956278 17.29936,-31.875924 18.4035744,-31.875924 z"
           transform="matrix(0.11198942,0,0,0.11198942,88.352275,143.39113)" />
      </g>
      <circle
         style="fill:#000000;fill-opacity:1;stroke:#000000;stroke-width:0.1;stroke-dasharray:none;stroke-opacity:1"
         id="path6"
         cx="88.664581"
         cy="184.55925"
         r="0.99056596" />
    </g>
    <g
       id="text1-0"
       style="font-weight:900;font-size:11.2889px;line-height:0.9;font-family:'Neue Haas Grotesk Display Pro';-inkscape-font-specification:'Neue Haas Grotesk Display Pro Heavy';text-align:center;letter-spacing:-0.00264583px;text-anchor:middle;fill:#ffffff;stroke-width:0.1"
       aria-label="S.E. THURSTON&#10;FIRE AUTHORITY">
      <path
         style="stroke:#000000"
         d="m 49.949552,202.56316 c 1.907824,0 3.476981,-0.93698 3.476981,-2.69805 0,-1.71591 -1.354668,-2.24649 -2.709336,-2.57387 -1.207912,-0.29351 -1.896535,-0.36124 -1.896535,-0.83538 0,-0.32738 0.361245,-0.56444 0.880534,-0.56444 0.643467,0 0.959557,0.28222 1.02729,0.72249 h 2.336802 c -0.03387,-1.76107 -1.569157,-2.46098 -3.239914,-2.46098 -1.817513,0 -3.330226,0.69991 -3.330226,2.55129 0,1.71591 1.636891,2.17876 2.991559,2.51742 0.993423,0.24836 1.53529,0.37254 1.53529,0.85796 0,0.48542 -0.564445,0.66604 -1.02729,0.66604 -0.778934,0 -1.275645,-0.3048 -1.354668,-0.94826 h -2.415824 c 0.03387,1.86267 1.625601,2.76578 3.725337,2.76578 z m 3.94848,-0.19191 h 2.201335 v -2.15618 h -2.201335 z m 3.000196,0 h 6.400806 v -2.02072 h -4.041426 v -1.26435 h 3.28507 v -1.77236 h -3.28507 v -1.09502 h 3.928537 v -1.91912 h -6.287917 z m 7.244823,0 h 2.201336 v -2.15618 h -2.201336 z m 4.363508,-6.06214 h 2.280358 v 6.06214 h 2.35938 v -6.06214 h 2.314225 v -2.00943 h -6.953963 z m 7.606073,6.06214 h 2.35938 v -3.1609 h 2.483558 v 3.1609 h 2.35938 v -8.07157 h -2.35938 v 2.95769 h -2.483558 v -2.95769 h -2.35938 z m 11.715241,0.14675 c 2.415825,0 3.601159,-1.24178 3.601159,-3.22862 v -4.9897 h -2.35938 v 5.08001 c 0,0.73378 -0.4064,1.25307 -1.207912,1.25307 -0.869245,0 -1.275646,-0.46285 -1.275646,-1.20792 v -5.12516 h -2.35938 v 4.9897 c 0,2.02071 1.174046,3.22862 3.601159,3.22862 z m 4.512922,-0.14675 h 2.35938 v -2.81094 h 1.095023 c 0.688623,0 0.959557,0.31609 1.106313,0.93698 0.169333,0.72249 0.07902,1.71591 0.3048,1.87396 h 2.325513 v -0.12418 c -0.293511,-0.079 -0.112889,-1.24178 -0.327378,-2.21263 -0.135467,-0.63217 -0.474134,-1.08373 -1.12889,-1.33209 v -0.0339 c 0.846668,-0.38383 1.320801,-1.03858 1.320801,-1.96427 0,-1.64818 -1.399823,-2.40454 -3.048003,-2.40454 h -4.007559 z m 2.35938,-6.22019 h 1.298223 c 0.677335,0 1.016002,0.33867 1.016002,0.86925 0,0.56444 -0.372534,0.85795 -1.049868,0.85795 h -1.264357 z m 8.746255,6.4121 c 1.90782,0 3.47698,-0.93698 3.47698,-2.69805 0,-1.71591 -1.35467,-2.24649 -2.70934,-2.57387 -1.20791,-0.29351 -1.89653,-0.36124 -1.89653,-0.83538 0,-0.32738 0.36124,-0.56444 0.88053,-0.56444 0.64347,0 0.95956,0.28222 1.02729,0.72249 h 2.3368 c -0.0339,-1.76107 -1.56915,-2.46098 -3.23991,-2.46098 -1.81751,0 -3.330226,0.69991 -3.330226,2.55129 0,1.71591 1.636886,2.17876 2.991556,2.51742 0.99343,0.24836 1.53529,0.37254 1.53529,0.85796 0,0.48542 -0.56444,0.66604 -1.02729,0.66604 -0.77893,0 -1.27564,-0.3048 -1.35466,-0.94826 h -2.415829 c 0.03387,1.86267 1.625599,2.76578 3.725339,2.76578 z m 3.57594,-6.25405 h 2.28036 v 6.06214 h 2.35938 v -6.06214 h 2.31422 v -2.00943 h -6.95396 z m 11.09435,6.25405 c 2.50614,0 4.10916,-1.78365 4.10916,-4.19947 0,-2.41583 -1.60302,-4.21076 -4.10916,-4.21076 -2.50614,0 -4.08658,1.79493 -4.08658,4.21076 0,2.41582 1.58044,4.19947 4.08658,4.19947 z m 0.0113,-1.88525 c -1.12889,0 -1.70463,-0.99342 -1.70463,-2.31422 0,-1.3208 0.57574,-2.32552 1.70463,-2.32552 1.12889,0 1.70462,1.00472 1.70462,2.32552 0,1.3208 -0.57573,2.31422 -1.70462,2.31422 z m 4.74999,1.69334 h 2.28035 v -4.57201 h 0.0226 l 2.56258,4.57201 h 2.4384 v -8.07157 h -2.28035 v 4.53814 h -0.0226 l -2.6416,-4.53814 H 122.878 Z"
         id="path4" />
      <path
         style="stroke:#000000"
         d="m 42.267468,212.53126 h 2.35938 v -2.93512 h 3.194759 v -1.8288 h -3.194759 v -1.3208 h 3.860804 v -1.98685 h -6.220184 z m 6.88359,0 h 2.359381 v -8.07157 h -2.359381 z m 3.327581,0 h 2.35938 v -2.81094 h 1.095024 c 0.688623,0 0.959556,0.31609 1.106312,0.93698 0.169334,0.72249 0.07902,1.71591 0.3048,1.87396 h 2.325514 v -0.12418 c -0.293512,-0.079 -0.112889,-1.24178 -0.327378,-2.21263 -0.135467,-0.63217 -0.474134,-1.08373 -1.12889,-1.33209 v -0.0339 c 0.846667,-0.38383 1.320801,-1.03858 1.320801,-1.96427 0,-1.64818 -1.399824,-2.40454 -3.048003,-2.40454 h -4.00756 z m 2.35938,-6.22019 h 1.298224 c 0.677334,0 1.016001,0.33867 1.016001,0.86925 0,0.56444 -0.372534,0.85795 -1.049868,0.85795 h -1.264357 z m 5.438604,6.22019 h 6.400807 v -2.02072 h -4.041426 v -1.26435 h 3.28507 v -1.77236 h -3.28507 v -1.09502 h 3.928537 v -1.91912 h -6.287918 z m 8.337197,0 h 2.348091 l 0.395112,-1.18534 h 2.731914 l 0.395111,1.18534 h 2.506136 l -2.991559,-8.07157 H 71.59409 Z m 3.804359,-4.39139 c 0.135467,-0.39511 0.304801,-1.03857 0.304801,-1.03857 h 0.02258 c 0,0 0.180622,0.64346 0.3048,1.03857 l 0.508,1.58045 h -1.670757 z m 8.159224,4.53814 c 2.415825,0 3.60116,-1.24178 3.60116,-3.22862 v -4.9897 h -2.35938 v 5.08001 c 0,0.73378 -0.406401,1.25307 -1.207913,1.25307 -0.869245,0 -1.275646,-0.46285 -1.275646,-1.20792 v -5.12516 h -2.35938 v 4.9897 c 0,2.02071 1.174046,3.22862 3.601159,3.22862 z m 4.196833,-6.20889 h 2.280358 v 6.06214 h 2.35938 v -6.06214 h 2.314224 v -2.00943 h -6.953962 z m 7.606071,6.06214 h 2.35938 v -3.1609 h 2.483558 v 3.1609 h 2.35938 v -8.07157 h -2.35938 v 2.95769 h -2.483558 v -2.95769 h -2.35938 z m 11.941023,0.19191 c 2.50613,0 4.10916,-1.78365 4.10916,-4.19947 0,-2.41583 -1.60303,-4.21076 -4.10916,-4.21076 -2.50614,0 -4.08658,1.79493 -4.08658,4.21076 0,2.41582 1.58044,4.19947 4.08658,4.19947 z m 0.0113,-1.88525 c -1.12889,0 -1.70463,-0.99342 -1.70463,-2.31422 0,-1.3208 0.57574,-2.32552 1.70463,-2.32552 1.12889,0 1.70462,1.00472 1.70462,2.32552 0,1.3208 -0.57573,2.31422 -1.70462,2.31422 z m 4.74999,1.69334 h 2.35938 v -2.81094 h 1.09502 c 0.68862,0 0.95956,0.31609 1.10631,0.93698 0.16934,0.72249 0.079,1.71591 0.3048,1.87396 h 2.32552 v -0.12418 c -0.29351,-0.079 -0.11289,-1.24178 -0.32738,-2.21263 -0.13547,-0.63217 -0.47413,-1.08373 -1.12889,-1.33209 v -0.0339 c 0.84667,-0.38383 1.3208,-1.03858 1.3208,-1.96427 0,-1.64818 -1.39982,-2.40454 -3.048,-2.40454 h -4.00756 z m 2.35938,-6.22019 h 1.29822 c 0.67734,0 1.016,0.33867 1.016,0.86925 0,0.56444 -0.37253,0.85795 -1.04987,0.85795 H 111.442 Z m 5.4386,6.22019 h 2.35938 v -8.07157 h -2.35938 z m 3.01149,-6.06214 h 2.28036 v 6.06214 h 2.35938 v -6.06214 h 2.31423 v -2.00943 h -6.95397 z m 10.03318,6.06214 h 2.35938 v -2.83352 l 2.77707,-5.23805 h -2.50614 l -0.85796,1.79494 c -0.29351,0.6096 -0.55315,1.29822 -0.55315,1.29822 h -0.0226 c 0,0 -0.24836,-0.68862 -0.54187,-1.29822 l -0.85795,-1.79494 h -2.56258 l 2.76578,5.23805 z"
         id="path5" />
    </g>
  </g>
</svg>
